<svg width="98" height="116" viewBox="0 0 98 116" fill="none" xmlns="http://www.w3.org/2000/svg">
<g filter="url(#filter0_d_25_16)">
<path d="M9 78.7164C19.9372 78.7164 25.6957 74.8887 33.7972 67.3238C42.8624 58.8591 54.1135 48.6923 58.446 36.5714C59.0983 34.7465 61.8358 24.3456 58.2975 23.8386C51.5813 22.8764 46.8944 29.031 42.3352 33.1462C34.46 40.2547 28.9655 46.5423 23.4032 55.6335C17.3831 65.4727 12.3538 82.6861 15.9789 94.5021C17.4041 99.1476 24.9652 104.461 29.7139 100.757C37.1099 94.9875 43.1623 86.003 49.7595 79.3865C54.339 74.7936 51.0931 76.875 46.6413 79.3865C43.5834 81.1116 42.6051 85.1565 41.37 88.0984C37.7141 96.8067 51.7641 101.565 51.7641 93.7575C51.7641 90.7294 51.7641 84.6732 51.7641 84.6732C51.7641 84.6732 52.8424 93.9233 56.4414 94.7255C62.3692 96.0466 54.3074 71.5556 57.9263 70.749C61.7186 69.9038 71.2701 77.9952 75.2249 78.7164M75.2249 78.7164C77.7189 79.1711 77.5246 76.2743 75.2249 78.7164ZM75.2249 78.7164C74.1702 79.8364 66.3914 84.0775 71.2158 84.0775C75.7821 84.0775 79.1976 84.8939 82.5008 81.3969C84.5175 79.2619 92.6303 62.9506 87.1039 61.3669C76.1559 58.2298 75.8189 70.703 75.8189 77.9717C75.8189 80.6549 77.8009 84.5498 80.5704 85.3434C86.291 86.9826 83.8372 75.5828 83.8372 72.7595C83.8372 56.0429 82.5876 40.39 77.1553 24.4343C75.4656 19.4714 72.8435 7.52882 67.8006 5" stroke="#C69AFF" stroke-width="10" stroke-linecap="round" shape-rendering="crispEdges"/>
</g>
<defs>
<filter id="filter0_d_25_16" x="0" y="-0.000976562" width="98" height="115.004" filterUnits="userSpaceOnUse" color-interpolation-filters="sRGB">
<feFlood flood-opacity="0" result="BackgroundImageFix"/>
<feColorMatrix in="SourceAlpha" type="matrix" values="0 0 0 0 0 0 0 0 0 0 0 0 0 0 0 0 0 0 127 0" result="hardAlpha"/>
<feOffset dy="4"/>
<feGaussianBlur stdDeviation="2"/>
<feComposite in2="hardAlpha" operator="out"/>
<feColorMatrix type="matrix" values="0 0 0 0 0 0 0 0 0 0 0 0 0 0 0 0 0 0 0.25 0"/>
<feBlend mode="normal" in2="BackgroundImageFix" result="effect1_dropShadow_25_16"/>
<feBlend mode="normal" in="SourceGraphic" in2="effect1_dropShadow_25_16" result="shape"/>
</filter>
</defs>
</svg>
